<?xml version="1.0" encoding="UTF-8" standalone="no"?>
<!DOCTYPE svg PUBLIC "-//W3C//DTD SVG 1.1//EN" "http://www.w3.org/Graphics/SVG/1.1/DTD/svg11.dtd">
<svg xmlns="http://www.w3.org/2000/svg" version="1.1" viewBox="0.00 0.00 299.00 299.00">
<path fill="#27abe3" d="
  M 127.46 130.96
  Q 120.93 136.39 114.04 136.97
  C 107.36 137.53 102.65 132.26 102.97 125.85
  C 103.26 120.03 107.73 117.45 112.31 114.80
  Q 113.94 113.87 112.82 112.37
  L 112.53 111.98
  A 1.25 1.25 0.0 0 0 110.83 111.68
  L 104.10 116.17
  Q 103.80 116.37 103.73 116.02
  C 102.04 107.94 107.13 100.44 115.09 98.75
  Q 115.59 98.64 115.87 98.22
  C 118.84 93.70 131.73 86.48 136.57 91.68
  Q 137.65 92.84 139.25 95.70
  C 142.46 101.42 139.00 105.13 133.94 107.56
  C 125.94 111.40 117.70 113.27 115.14 123.24
  A 1.76 1.75 -72.9 0 0 116.24 125.33
  L 116.62 125.47
  A 1.17 1.17 0.0 0 0 118.15 124.67
  C 119.83 118.22 123.50 115.83 129.46 113.50
  C 141.42 108.83 149.41 101.81 138.97 89.22
  A 1.11 1.11 0.0 0 1 139.26 87.56
  Q 147.18 82.95 153.89 89.15
  A 0.90 0.90 0.0 0 1 153.88 90.48
  C 148.52 95.19 145.68 100.29 149.46 107.27
  C 150.49 109.17 153.70 112.59 154.50 115.72
  C 155.61 120.04 148.53 124.76 144.66 127.93
  Q 142.55 129.66 141.14 133.80
  Q 140.99 134.25 140.52 134.38
  Q 135.72 135.70 131.24 133.65
  A 1.55 1.53 87.8 0 1 130.56 133.01
  Q 129.80 131.61 128.39 130.86
  Q 127.89 130.59 127.46 130.96
  Z"
/>
<path fill="#000000" d="
  M 175.01 101.12
  C 182.17 99.20 187.94 105.02 186.52 112.21
  Q 186.41 112.74 186.93 112.89
  Q 198.07 116.14 195.56 127.83
  A 0.55 0.55 0.0 0 1 194.69 128.16
  Q 192.08 126.19 188.90 125.59
  Q 188.38 125.50 188.26 124.99
  C 185.44 113.32 174.50 110.70 164.73 115.84
  A 1.23 1.23 0.0 0 0 164.20 117.47
  L 164.34 117.78
  Q 165.00 119.12 166.40 118.63
  Q 169.43 117.56 171.26 117.10
  C 179.24 115.10 184.01 120.27 185.41 127.42
  Q 185.52 127.96 186.05 128.10
  C 190.38 129.24 195.52 130.39 195.18 136.18
  Q 194.87 141.54 189.05 142.90
  A 1.18 1.18 0.0 0 0 188.30 143.44
  Q 185.73 147.55 180.93 146.65
  C 179.46 146.38 178.27 145.32 176.87 144.61
  Q 176.42 144.38 175.96 144.57
  Q 175.19 144.87 174.48 145.29
  C 170.81 147.46 166.56 146.24 164.04 143.09
  Q 163.71 142.68 163.99 142.23
  Q 167.47 136.64 168.50 130.11
  A 1.37 1.36 13.6 0 0 167.57 128.59
  L 167.18 128.46
  Q 165.43 127.89 165.13 129.71
  Q 164.04 136.27 161.42 139.68
  C 154.38 148.80 137.27 139.39 147.43 130.19
  C 152.64 125.46 162.33 119.78 156.19 111.25
  Q 153.01 106.84 151.53 103.74
  C 149.22 98.89 155.30 92.59 159.24 91.27
  C 166.48 88.85 173.37 93.19 174.37 100.70
  Q 174.45 101.27 175.01 101.12
  Z"
/>
<path fill="#27abe3" d="
  M 116.55 140.45
  C 120.22 140.50 123.97 138.39 126.60 135.96
  Q 126.99 135.60 127.50 135.76
  C 132.50 137.38 135.26 138.27 140.55 137.56
  Q 141.02 137.50 141.12 137.96
  Q 141.41 139.22 140.48 139.76
  Q 137.45 141.52 134.48 143.41
  Q 133.44 144.07 133.21 145.25
  C 131.47 153.98 122.89 158.38 114.74 158.95
  Q 113.85 159.01 114.50 158.40
  C 115.67 157.31 117.03 156.38 117.77 155.12
  C 119.81 151.64 119.63 146.67 118.05 143.10
  C 117.68 142.29 116.85 141.70 116.32 140.89
  Q 116.02 140.44 116.55 140.45
  Z"
/>
<path fill="#27abe3" d="
  M 107.01 167.26
  Q 106.87 169.22 107.05 171.19
  Q 107.08 171.55 107.26 171.67
  Q 107.41 171.77 107.63 171.73
  Q 107.91 171.67 108.01 171.41
  L 108.36 170.45
  A 0.47 0.46 -52.5 0 1 109.17 170.34
  Q 109.75 171.16 109.26 172.29
  Q 109.07 172.72 106.79 172.86
  Q 106.55 172.87 106.09 172.40
  A 0.65 0.65 0.0 0 1 105.90 171.94
  L 105.87 166.31
  Q 105.86 165.66 106.47 165.44
  Q 107.67 165.00 108.90 165.45
  A 0.86 0.85 13.1 0 1 109.46 166.34
  L 109.31 167.73
  A 0.31 0.31 0.0 0 1 108.76 167.89
  Q 108.09 167.03 107.68 166.69
  Q 107.09 166.20 107.01 167.26
  Z"
/>
<path fill="#000000" d="
  M 152.36 171.53
  Q 152.52 171.72 152.74 171.66
  Q 152.88 171.63 152.96 171.50
  Q 153.17 171.18 153.23 170.80
  Q 153.30 170.37 153.72 170.30
  Q 153.89 170.27 154.11 170.32
  A 0.51 0.50 6.5 0 1 154.53 170.84
  Q 154.38 173.72 151.65 172.85
  A 1.19 1.19 0.0 0 1 150.82 171.73
  L 150.80 166.48
  Q 150.79 165.79 151.40 165.48
  C 152.75 164.78 154.86 165.28 154.49 167.24
  Q 154.37 167.85 153.77 167.71
  Q 153.02 167.54 153.04 166.75
  Q 153.05 166.07 152.48 166.44
  Q 152.18 166.64 152.14 167.13
  Q 152.01 168.99 152.10 170.86
  Q 152.11 171.24 152.36 171.53
  Z"
/>
<path fill="#27abe3" d="
  M 113.56 171.83
  Q 113.32 172.15 113.16 172.47
  Q 112.97 172.84 112.76 172.94
  Q 112.57 173.02 112.40 172.98
  Q 111.91 172.88 112.03 172.39
  L 113.48 166.60
  Q 113.66 165.89 114.37 166.04
  Q 114.57 166.08 114.75 166.11
  Q 115.08 166.18 115.17 166.51
  L 116.71 172.34
  Q 116.85 172.87 116.30 172.89
  L 115.98 172.90
  A 0.65 0.64 81.7 0 1 115.33 172.41
  Q 115.15 171.68 114.37 171.52
  Q 113.86 171.42 113.56 171.83
  Z
  M 114.87 169.88
  Q 114.99 169.33 114.76 168.77
  Q 114.50 168.15 114.19 168.75
  Q 113.87 169.34 113.79 170.02
  Q 113.73 170.57 114.28 170.49
  L 114.69 170.42
  Q 114.88 170.39 114.91 170.20
  Q 114.93 170.04 114.87 169.88
  Z"
/>
<path fill="#27abe3" d="
  M 122.52 169.28
  L 122.93 166.67
  Q 123.01 166.11 123.58 166.04
  L 123.93 166.00
  A 0.70 0.69 -3.4 0 1 124.70 166.68
  L 124.77 172.29
  Q 124.77 172.60 124.46 172.60
  L 119.49 172.66
  Q 119.20 172.66 119.21 172.37
  L 119.38 166.94
  Q 119.41 166.12 120.21 166.01
  L 120.46 165.98
  A 0.54 0.53 -9.0 0 1 121.06 166.41
  Q 121.22 167.28 121.41 168.74
  Q 121.49 169.37 121.85 169.59
  Q 122.42 169.92 122.52 169.28
  Z"
/>
<path fill="#27abe3" d="
  M 128.62 171.72
  L 128.64 172.48
  Q 128.65 173.01 128.13 172.96
  L 127.76 172.92
  Q 127.28 172.88 127.28 172.39
  L 127.31 166.83
  A 0.82 0.82 0.0 0 1 128.17 166.02
  L 129.99 166.09
  Q 130.97 166.13 131.11 167.10
  Q 131.64 170.69 129.67 170.67
  A 1.03 1.03 0.0 0 0 128.62 171.72
  Z
  M 129.2694 169.8098
  A 1.31 0.74 90.9 0 0 130.0299 168.5116
  A 1.31 0.74 90.9 0 0 129.3106 167.1902
  A 1.31 0.74 90.9 0 0 128.5501 168.4884
  A 1.31 0.74 90.9 0 0 129.2694 169.8098
  Z"
/>
<path fill="#27abe3" d="
  M 136.23 171.27
  L 136.29 166.48
  Q 136.30 166.01 136.77 166.03
  L 137.19 166.04
  Q 137.56 166.06 137.57 166.44
  L 137.62 171.37
  Q 137.63 173.01 136.00 173.00
  L 135.48 172.99
  A 1.63 1.62 0.5 0 1 133.86 171.35
  L 133.90 166.32
  Q 133.91 166.04 134.18 166.05
  L 134.74 166.05
  Q 134.93 166.06 134.93 166.24
  L 135.02 171.20
  A 0.49 0.49 0.0 0 0 135.48 171.68
  L 135.75 171.71
  Q 136.23 171.74 136.23 171.27
  Z"
/>
<path fill="#27abe3" d="
  M 143.02 170.99
  Q 142.67 169.95 141.46 170.14
  A 0.71 0.69 -19.6 0 1 140.74 169.81
  Q 140.27 169.02 140.26 168.14
  A 2.02 2.02 0.0 0 1 142.51 166.12
  Q 144.38 166.33 143.84 168.01
  A 0.38 0.38 0.0 0 1 143.15 168.10
  Q 142.82 167.58 142.26 167.31
  A 0.43 0.42 26.9 0 0 141.70 167.49
  L 141.48 167.93
  A 0.46 0.46 0.0 0 0 141.64 168.52
  Q 142.35 168.98 143.19 169.09
  Q 143.64 169.15 143.78 169.58
  Q 144.24 171.03 143.66 172.34
  A 1.74 1.74 0.0 0 1 140.60 172.55
  Q 140.15 171.83 140.30 171.13
  Q 140.42 170.60 140.86 170.93
  Q 141.59 171.47 142.48 171.63
  A 0.49 0.49 0.0 0 0 143.02 170.99
  Z"
/>
<path fill="#000000" d="
  M 161.05 171.22
  A 1.78 1.78 0.0 0 1 159.27 173.00
  L 158.79 173.00
  A 1.78 1.78 0.0 0 1 157.01 171.22
  L 157.01 167.78
  A 1.78 1.78 0.0 0 1 158.79 166.00
  L 159.27 166.00
  A 1.78 1.78 0.0 0 1 161.05 167.78
  L 161.05 171.22
  Z
  M 159.1126 171.9200
  A 2.40 0.78 89.7 0 0 159.8800 169.5159
  A 2.40 0.78 89.7 0 0 159.0874 167.1200
  A 2.40 0.78 89.7 0 0 158.3200 169.5241
  A 2.40 0.78 89.7 0 0 159.1126 171.9200
  Z"
/>
<path fill="#000000" d="
  M 166.41 168.73
  L 166.36 166.51
  Q 166.35 166.08 166.78 166.06
  L 167.08 166.05
  Q 167.57 166.02 167.57 166.51
  L 167.58 172.31
  Q 167.58 172.90 166.99 172.88
  Q 166.71 172.87 166.47 172.67
  Q 166.30 172.53 166.20 172.17
  Q 165.90 171.06 165.31 170.10
  Q 164.72 169.12 164.73 170.26
  L 164.77 172.55
  Q 164.77 172.92 164.40 172.92
  L 164.04 172.93
  A 0.44 0.44 0.0 0 1 163.59 172.50
  Q 163.55 169.59 163.62 166.66
  Q 163.62 166.28 163.81 166.15
  Q 163.94 166.05 164.12 166.04
  Q 164.45 166.01 164.61 166.31
  L 165.91 168.86
  A 0.27 0.26 -59.4 0 0 166.41 168.73
  Z"
/>
<path fill="#000000" d="
  M 171.52 170.57
  L 171.64 172.30
  A 0.57 0.56 -4.0 0 1 171.11 172.90
  L 170.73 172.92
  Q 170.26 172.94 170.26 172.48
  L 170.31 166.52
  Q 170.32 166.09 170.73 166.00
  Q 170.92 165.96 171.10 166.01
  Q 171.49 166.11 171.57 166.52
  Q 171.83 167.87 172.68 168.90
  Q 173.17 169.50 173.19 168.72
  L 173.27 166.30
  Q 173.27 166.09 173.48 166.06
  L 173.91 166.00
  Q 174.38 165.94 174.38 166.41
  L 174.38 172.44
  Q 174.38 173.08 173.76 172.92
  L 173.40 172.83
  A 0.36 0.36 0.0 0 1 173.13 172.56
  Q 172.82 171.32 171.97 170.38
  Q 171.47 169.84 171.52 170.57
  Z"
/>
<path fill="#000000" d="
  M 178.20 167.57
  A 0.73 0.73 0.0 0 0 178.67 168.84
  L 179.61 168.87
  A 0.54 0.54 0.0 0 1 180.13 169.47
  L 180.08 169.98
  Q 180.06 170.26 179.78 170.24
  L 178.56 170.16
  A 0.52 0.52 0.0 0 0 178.00 170.69
  L 178.01 171.21
  Q 178.02 171.88 178.67 171.73
  Q 179.96 171.43 180.18 171.58
  A 0.79 0.77 62.5 0 1 179.75 173.00
  L 177.45 173.00
  A 0.55 0.55 0.0 0 1 176.90 172.45
  L 176.87 166.69
  Q 176.87 166.00 177.56 166.01
  L 180.12 166.02
  Q 181.03 166.03 180.67 166.86
  L 180.50 167.25
  Q 180.26 167.79 179.75 167.49
  Q 178.86 166.95 178.20 167.57
  Z"
/>
<path fill="#000000" d="
  M 184.68 167.76
  Q 184.44 169.70 184.79 171.58
  Q 185.01 172.73 185.54 171.68
  L 186.10 170.56
  A 0.45 0.45 0.0 0 1 186.95 170.68
  Q 187.40 172.99 185.17 173.03
  Q 183.29 173.05 183.31 171.16
  L 183.37 167.54
  A 1.64 1.63 -86.8 0 1 185.16 165.94
  Q 187.58 166.18 186.90 168.55
  Q 186.72 169.18 186.25 168.72
  Q 185.82 168.31 185.72 167.74
  A 0.53 0.53 0.0 0 0 184.68 167.76
  Z"
/>
<path fill="#000000" d="
  M 192.26 168.07
  L 192.27 172.50
  A 0.41 0.41 0.0 0 1 191.93 172.90
  L 191.52 172.97
  Q 190.99 173.06 190.99 172.52
  L 191.00 167.96
  Q 191.00 167.42 190.46 167.38
  L 190.09 167.35
  Q 189.78 167.33 189.68 167.04
  Q 189.43 166.37 190.25 166.13
  Q 191.94 165.65 193.33 166.42
  A 0.47 0.47 0.0 0 1 193.26 167.27
  L 192.68 167.47
  Q 192.26 167.62 192.26 168.07
  Z"
/>
</svg>
