<?xml version="1.0" encoding="UTF-8" standalone="no"?>
<!DOCTYPE svg PUBLIC "-//W3C//DTD SVG 1.1//EN" "http://www.w3.org/Graphics/SVG/1.1/DTD/svg11.dtd">
<svg xmlns="http://www.w3.org/2000/svg" version="1.1" viewBox="0.00 0.00 161.00 161.00">
<g stroke-width="2.00" fill="none" stroke-linecap="butt">
<path stroke="#003042" vector-effect="non-scaling-stroke" d="
  M 76.72 0.78
  L 74.84 1.22
  Q 74.45 1.32 74.39 1.72
  C 73.83 5.33 70.74 3.99 69.70 6.29
  Q 69.52 6.70 69.17 6.99
  L 56.74 17.24
  A 18.33 0.96 -37.5 0 0 52.67 20.72
  Q 47.06 25.79 40.38 30.88
  Q 37.92 32.75 36.25 34.25
  Q 33.10 37.08 32.27 37.76
  C 29.64 39.95 27.59 42.30 24.67 44.22
  C 21.44 46.35 18.92 49.09 15.77 51.02
  Q 14.86 51.57 13.93 52.45
  C 12.50 53.80 10.13 55.00 9.07 55.80
  Q 7.92 56.66 6.76 57.51
  C 5.40 58.50 3.51 59.06 2.74 61.05
  Q 2.49 61.70 1.85 61.91
  Q 1.40 62.06 1.34 62.53
  Q 1.08 64.33 0.29 64.31"
/>
<path stroke="#002134" vector-effect="non-scaling-stroke" d="
  M 138.51 3.73
  Q 138.90 5.29 139.93 6.24
  Q 140.41 6.68 139.96 7.16
  L 138.06 9.21
  A 0.91 0.88 -30.6 0 0 137.84 10.01
  Q 138.28 12.09 136.55 12.72
  Q 135.98 12.92 135.84 13.51
  C 134.85 17.69 134.51 20.54 130.18 22.94
  A 1.22 1.20 -3.8 0 0 129.64 23.55
  C 128.92 25.21 127.32 25.02 126.21 26.54
  Q 125.91 26.96 125.41 27.10
  Q 123.89 27.54 123.66 29.07
  Q 123.60 29.49 123.19 29.60
  L 121.91 29.93
  Q 121.51 30.04 121.23 30.35
  Q 118.64 33.30 115.05 34.98
  Q 114.59 35.20 114.33 35.65
  Q 113.62 36.91 112.30 36.90
  Q 112.01 36.90 111.85 37.15
  L 111.65 37.45
  Q 111.53 37.64 111.31 37.67
  Q 109.85 37.86 109.66 39.49
  Q 109.58 40.13 109.97 40.39
  Q 110.03 40.44 110.00 40.51
  Q 109.92 40.67 109.75 40.62
  Q 109.22 40.46 109.56 41.47
  Q 109.83 42.26 108.71 42.54
  Q 108.12 42.69 107.71 42.24
  Q 107.55 42.05 107.25 42.14
  A 0.94 0.05 -16.7 0 0 106.40 42.44
  Q 106.23 43.00 106.73 43.11
  Q 108.29 43.47 108.75 44.67
  Q 108.83 44.90 108.98 45.10
  Q 109.88 46.33 109.29 48.16"
/>
<path stroke="#7b909a" vector-effect="non-scaling-stroke" d="
  M 109.29 48.16
  Q 108.51 44.02 102.20 40.82
  Q 79.78 29.45 57.83 40.59
  Q 43.86 47.68 37.04 64.05"
/>
<path stroke="#002134" vector-effect="non-scaling-stroke" d="
  M 37.04 64.05
  Q 37.00 62.24 36.05 61.35
  Q 35.98 61.29 36.06 61.23
  Q 36.18 61.15 36.30 61.12
  Q 36.60 61.05 36.62 60.75
  Q 36.63 60.60 36.62 60.45
  Q 36.61 60.20 36.35 60.19
  Q 35.71 60.18 35.74 60.79
  Q 35.77 61.29 35.31 61.09
  C 33.72 60.39 31.98 61.98 32.06 63.54
  Q 32.09 64.04 31.74 64.40
  Q 28.16 68.16 23.82 71.06
  Q 20.74 73.12 19.40 76.02
  Q 18.85 77.21 17.81 77.36
  Q 17.35 77.43 17.38 77.89
  Q 17.40 78.30 16.72 78.56
  A 1.04 1.00 -54.4 0 1 16.35 78.63
  Q 14.87 78.61 13.38 78.63
  Q 13.37 78.63 13.37 78.63
  Q 13.37 78.63 13.37 78.63
  Q 13.37 78.62 13.38 78.62
  Q 15.05 78.57 14.04 80.51
  A 1.89 1.86 -86.2 0 1 13.06 81.38
  C 12.10 81.74 11.00 82.62 10.34 83.57
  Q 7.23 88.08 3.46 92.15
  Q 3.06 92.58 2.54 92.32
  Q 1.57 91.82 1.67 90.36
  A 0.02 0.02 0.0 0 0 1.64 90.34
  Q 1.63 90.35 1.63 90.38
  Q 1.61 91.88 1.63 93.42
  Q 1.64 93.79 1.48 94.07
  Q 1.32 94.35 1.08 94.65
  Q 0.79 95.01 0.65 94.57
  L 0.24 93.28"
/>
<path stroke="#001326" vector-effect="non-scaling-stroke" d="
  M 159.64 33.92
  Q 159.41 36.17 158.51 37.91
  Q 158.43 38.07 158.52 38.22
  Q 158.59 38.33 158.73 38.37
  Q 158.88 38.42 158.75 38.50
  L 156.07 40.21
  Q 155.70 40.45 155.60 40.87
  Q 155.38 41.78 154.67 42.35
  Q 154.25 42.68 154.16 43.21
  Q 154.02 44.07 153.20 44.33
  Q 152.67 44.49 152.45 45.00
  Q 151.72 46.63 150.00 47.12
  A 0.33 0.33 0.0 0 0 149.97 47.74
  Q 150.19 47.82 150.12 48.00
  Q 149.82 48.71 149.72 48.84
  Q 148.95 49.85 147.84 50.19
  Q 147.27 50.36 147.21 50.95
  Q 146.88 54.01 143.91 54.15
  Q 143.44 54.18 143.28 54.61
  Q 142.49 56.71 140.27 57.22
  Q 139.74 57.33 139.49 57.80
  Q 138.77 59.11 137.38 59.61
  A 2.65 2.64 -14.4 0 0 135.66 62.51
  Q 135.97 64.49 134.41 64.75
  Q 133.71 64.87 133.88 65.56
  Q 134.06 66.30 133.55 66.71
  A 0.55 0.55 0.0 0 0 133.58 67.59
  Q 134.05 67.92 134.26 68.47
  Q 134.40 68.84 134.23 69.20
  L 133.02 71.63
  Q 132.82 72.04 132.83 72.50
  Q 132.85 74.19 130.32 76.24
  A 0.73 0.73 0.0 0 1 129.14 75.82
  Q 129.00 75.09 127.96 75.21
  Q 127.89 75.22 127.90 75.15
  Q 127.90 75.01 127.79 74.89
  Q 127.62 74.70 127.58 74.95
  Q 127.45 75.73 127.07 76.45
  Q 126.84 76.87 126.82 77.36
  L 126.49 87.74"
/>
<path stroke="#7b8892" vector-effect="non-scaling-stroke" d="
  M 126.49 87.74
  Q 128.35 71.19 119.74 57.53
  C 116.99 53.17 112.50 58.04 110.39 60.90
  Q 109.26 62.42 110.08 64.17
  C 114.53 73.58 115.99 82.37 112.42 92.58"
/>
<path stroke="#001326" vector-effect="non-scaling-stroke" d="
  M 112.42 92.58
  Q 111.68 90.64 112.85 89.34
  Q 113.18 88.97 113.10 88.48
  C 112.77 86.51 112.99 83.73 112.15 82.02
  Q 111.84 81.39 111.75 82.08
  L 111.71 82.35
  Q 111.70 82.45 111.60 82.47
  L 103.41 84.42
  A 0.29 0.26 -81.7 0 0 103.23 84.57
  Q 103.16 84.72 103.12 84.81
  Q 102.94 85.20 102.52 85.15
  Q 101.70 85.06 101.41 85.65
  A 2.34 2.27 -69.2 0 1 98.74 86.90
  Q 97.62 86.59 96.95 87.62
  Q 96.69 88.03 96.21 88.03
  Q 94.57 88.06 94.02 89.52
  A 0.69 0.69 0.0 0 1 93.21 89.94
  Q 92.41 89.74 92.14 90.52
  A 0.80 0.77 87.7 0 1 91.72 90.99
  Q 91.46 91.11 91.21 91.11
  Q 90.70 91.11 90.47 91.56
  Q 90.01 92.46 89.10 92.86
  Q 88.65 93.06 88.65 93.55
  L 88.65 94.24
  Q 88.65 94.67 88.26 94.84
  Q 87.66 95.11 87.58 95.82
  Q 87.53 96.34 87.16 96.69
  L 86.34 97.44
  A 0.54 0.54 0.0 0 0 86.36 98.25
  L 88.50 100.06
  Q 88.84 100.36 88.66 100.78
  L 88.38 101.42
  Q 88.19 101.84 88.50 102.19
  Q 89.09 102.87 88.52 103.51
  Q 88.35 103.70 87.60 103.97
  Q 86.75 104.28 86.61 105.30
  A 0.72 0.71 -9.5 0 1 86.21 105.85
  Q 84.55 106.63 83.50 108.11
  A 0.09 0.08 -52.5 0 0 83.51 108.23
  Q 83.60 108.33 83.68 108.42
  Q 83.69 108.43 83.68 108.44
  C 82.08 109.79 80.74 111.15 78.64 111.67
  Q 76.94 112.09 75.21 112.40
  Q 74.65 112.50 74.61 113.06
  L 74.55 113.77
  Q 74.50 114.30 74.08 113.98
  Q 73.39 113.46 72.50 113.45
  Q 72.18 113.45 72.39 113.70
  Q 72.56 113.91 72.83 113.93
  Q 73.24 113.98 73.31 114.39
  Q 73.35 114.62 73.16 114.84"
/>
<path stroke="#7b8892" vector-effect="non-scaling-stroke" d="
  M 73.16 114.84
  Q 66.30 112.71 60.29 108.88
  Q 58.98 108.05 58.08 108.04
  C 54.83 108.03 47.98 114.97 52.28 118.35
  Q 60.15 124.52 70.26 126.92
  Q 71.77 127.28 73.38 125.93"
/>
<path stroke="#001326" vector-effect="non-scaling-stroke" d="
  M 73.38 125.93
  Q 73.15 127.74 72.26 127.98
  Q 70.92 128.33 69.31 127.56
  Q 68.84 127.34 68.43 127.66
  Q 67.89 128.10 67.32 127.32
  Q 67.16 127.10 66.89 127.12
  Q 66.53 127.15 66.14 127.05
  Q 65.77 126.96 65.51 126.67
  Q 64.83 125.93 63.77 125.85
  Q 63.23 125.81 62.91 126.24
  Q 62.52 126.79 62.64 127.50
  Q 62.66 127.63 62.63 127.63
  Q 62.56 127.63 62.50 127.63
  Q 62.42 127.64 62.50 127.50
  Q 62.72 127.09 62.58 126.62
  A 0.36 0.36 0.0 0 0 61.93 126.54
  L 61.37 127.50
  Q 61.26 127.68 61.05 127.64
  Q 60.28 127.49 59.79 127.94
  A 0.23 0.23 0.0 0 0 59.75 128.21
  L 59.91 128.51
  A 0.08 0.07 75.1 0 1 59.85 128.63
  Q 58.55 128.61 58.01 129.76
  Q 57.85 130.09 57.49 130.06
  Q 57.23 130.04 57.00 130.24
  Q 56.64 130.54 56.61 131.08
  Q 56.58 131.49 56.18 131.39
  Q 54.74 131.06 54.59 132.43
  Q 54.57 132.63 54.37 132.63
  L 54.03 132.63
  Q 53.46 132.64 53.01 133.00
  Q 49.68 135.72 46.24 138.32
  C 45.05 139.22 44.21 140.61 42.79 141.43
  A 0.66 0.55 -77.1 0 0 42.66 141.53
  Q 41.21 143.08 39.90 144.80
  Q 39.65 145.13 39.25 145.22
  Q 39.12 145.25 38.98 145.28
  Q 38.58 145.39 38.39 145.76
  L 37.32 147.87
  A 0.11 0.11 0.0 0 1 37.14 147.90
  Q 37.03 147.79 36.92 147.68
  Q 36.79 147.55 36.62 147.61
  Q 34.52 148.37 33.50 150.26
  Q 33.26 150.72 32.77 150.88
  Q 32.43 150.99 32.21 151.32
  Q 32.12 151.45 32.12 151.29
  Q 32.11 151.12 32.12 150.95
  Q 32.12 150.73 31.91 150.77
  L 28.55 151.37
  A 0.92 0.92 0.0 0 0 27.85 152.58
  L 28.05 153.13
  A 0.82 0.82 0.0 0 1 27.88 153.95
  Q 26.24 155.77 24.21 157.18
  Q 24.01 157.32 23.94 157.49
  Q 23.87 157.69 23.86 157.93
  Q 23.84 158.39 23.38 158.50
  Q 22.52 158.70 21.94 159.23"
/>
<path stroke="#7b8892" vector-effect="non-scaling-stroke" d="
  M 37.04 64.05
  C 31.73 77.09 32.21 92.14 39.66 104.22
  C 43.09 109.78 47.33 104.79 49.58 102.05
  C 51.60 99.59 49.46 97.06 48.30 94.47
  C 45.30 87.82 45.61 77.46 47.63 71.18
  C 51.55 59.03 62.58 49.68 75.07 47.80
  C 84.94 46.31 91.91 49.34 100.54 53.89
  C 103.87 55.64 107.55 51.19 109.29 48.16"
/>
<path stroke="#7b8892" vector-effect="non-scaling-stroke" d="
  M 103.12 68.83
  A 8.02 8.02 0.0 0 0 95.10 60.81
  A 8.02 8.02 0.0 0 0 87.08 68.83
  A 8.02 8.02 0.0 0 0 95.10 76.85
  A 8.02 8.02 0.0 0 0 103.12 68.83"
/>
<path stroke="#7b8892" vector-effect="non-scaling-stroke" d="
  M 72.62 89.96
  A 7.89 7.89 0.0 0 0 64.73 82.07
  A 7.89 7.89 0.0 0 0 56.84 89.96
  A 7.89 7.89 0.0 0 0 64.73 97.85
  A 7.89 7.89 0.0 0 0 72.62 89.96"
/>
<path stroke="#7b828c" vector-effect="non-scaling-stroke" d="
  M 73.38 125.93
  C 73.92 123.06 74.63 117.71 73.16 114.84"
/>
<path stroke="#7b828c" vector-effect="non-scaling-stroke" d="
  M 112.42 92.58
  C 108.13 104.47 97.83 113.06 84.97 114.97
  A 1.92 1.91 -4.7 0 0 83.34 116.88
  L 83.42 125.71
  A 0.98 0.96 -73.2 0 0 83.82 126.48
  Q 85.49 127.68 88.52 127.05
  Q 107.23 123.19 117.66 108.91
  Q 124.62 99.38 126.49 87.74"
/>
</g>
<path fill="#003748" d="
  M 76.72 0.78
  L 74.84 1.22
  Q 74.45 1.32 74.39 1.72
  C 73.83 5.33 70.74 3.99 69.70 6.29
  Q 69.52 6.70 69.17 6.99
  L 56.74 17.24
  A 18.33 0.96 -37.5 0 0 52.67 20.72
  Q 47.06 25.79 40.38 30.88
  Q 37.92 32.75 36.25 34.25
  Q 33.10 37.08 32.27 37.76
  C 29.64 39.95 27.59 42.30 24.67 44.22
  C 21.44 46.35 18.92 49.09 15.77 51.02
  Q 14.86 51.57 13.93 52.45
  C 12.50 53.80 10.13 55.00 9.07 55.80
  Q 7.92 56.66 6.76 57.51
  C 5.40 58.50 3.51 59.06 2.74 61.05
  Q 2.49 61.70 1.85 61.91
  Q 1.40 62.06 1.34 62.53
  Q 1.08 64.33 0.29 64.31
  Q 0.06 41.23 0.44 30.75
  C 0.92 17.71 13.32 5.96 24.87 2.51
  Q 30.05 0.97 40.77 0.87
  Q 58.75 0.70 76.72 0.78
  Z"
/>
<path fill="#00283b" d="
  M 76.72 0.78
  Q 97.97 0.74 119.25 0.70
  C 126.62 0.69 132.09 1.15 138.51 3.73
  Q 138.90 5.29 139.93 6.24
  Q 140.41 6.68 139.96 7.16
  L 138.06 9.21
  A 0.91 0.88 -30.6 0 0 137.84 10.01
  Q 138.28 12.09 136.55 12.72
  Q 135.98 12.92 135.84 13.51
  C 134.85 17.69 134.51 20.54 130.18 22.94
  A 1.22 1.20 -3.8 0 0 129.64 23.55
  C 128.92 25.21 127.32 25.02 126.21 26.54
  Q 125.91 26.96 125.41 27.10
  Q 123.89 27.54 123.66 29.07
  Q 123.60 29.49 123.19 29.60
  L 121.91 29.93
  Q 121.51 30.04 121.23 30.35
  Q 118.64 33.30 115.05 34.98
  Q 114.59 35.20 114.33 35.65
  Q 113.62 36.91 112.30 36.90
  Q 112.01 36.90 111.85 37.15
  L 111.65 37.45
  Q 111.53 37.64 111.31 37.67
  Q 109.85 37.86 109.66 39.49
  Q 109.58 40.13 109.97 40.39
  Q 110.03 40.44 110.00 40.51
  Q 109.92 40.67 109.75 40.62
  Q 109.22 40.46 109.56 41.47
  Q 109.83 42.26 108.71 42.54
  Q 108.12 42.69 107.71 42.24
  Q 107.55 42.05 107.25 42.14
  A 0.94 0.05 -16.7 0 0 106.40 42.44
  Q 106.23 43.00 106.73 43.11
  Q 108.29 43.47 108.75 44.67
  Q 108.83 44.90 108.98 45.10
  Q 109.88 46.33 109.29 48.16
  Q 108.51 44.02 102.20 40.82
  Q 79.78 29.45 57.83 40.59
  Q 43.86 47.68 37.04 64.05
  Q 37.00 62.24 36.05 61.35
  Q 35.98 61.29 36.06 61.23
  Q 36.18 61.15 36.30 61.12
  Q 36.60 61.05 36.62 60.75
  Q 36.63 60.60 36.62 60.45
  Q 36.61 60.20 36.35 60.19
  Q 35.71 60.18 35.74 60.79
  Q 35.77 61.29 35.31 61.09
  C 33.72 60.39 31.98 61.98 32.06 63.54
  Q 32.09 64.04 31.74 64.40
  Q 28.16 68.16 23.82 71.06
  Q 20.74 73.12 19.40 76.02
  Q 18.85 77.21 17.81 77.36
  Q 17.35 77.43 17.38 77.89
  Q 17.40 78.30 16.72 78.56
  A 1.04 1.00 -54.4 0 1 16.35 78.63
  Q 14.87 78.61 13.38 78.63
  Q 13.37 78.63 13.37 78.63
  Q 13.37 78.63 13.37 78.63
  Q 13.37 78.62 13.38 78.62
  Q 15.05 78.57 14.04 80.51
  A 1.89 1.86 -86.2 0 1 13.06 81.38
  C 12.10 81.74 11.00 82.62 10.34 83.57
  Q 7.23 88.08 3.46 92.15
  Q 3.06 92.58 2.54 92.32
  Q 1.57 91.82 1.67 90.36
  A 0.02 0.02 0.0 0 0 1.64 90.34
  Q 1.63 90.35 1.63 90.38
  Q 1.61 91.88 1.63 93.42
  Q 1.64 93.79 1.48 94.07
  Q 1.32 94.35 1.08 94.65
  Q 0.79 95.01 0.65 94.57
  L 0.24 93.28
  L 0.29 64.31
  Q 1.08 64.33 1.34 62.53
  Q 1.40 62.06 1.85 61.91
  Q 2.49 61.70 2.74 61.05
  C 3.51 59.06 5.40 58.50 6.76 57.51
  Q 7.92 56.66 9.07 55.80
  C 10.13 55.00 12.50 53.80 13.93 52.45
  Q 14.86 51.57 15.77 51.02
  C 18.92 49.09 21.44 46.35 24.67 44.22
  C 27.59 42.30 29.64 39.95 32.27 37.76
  Q 33.10 37.08 36.25 34.25
  Q 37.92 32.75 40.38 30.88
  Q 47.06 25.79 52.67 20.72
  A 18.33 0.96 -37.5 0 1 56.74 17.24
  L 69.17 6.99
  Q 69.52 6.70 69.70 6.29
  C 70.74 3.99 73.83 5.33 74.39 1.72
  Q 74.45 1.32 74.84 1.22
  L 76.72 0.78
  Z"
/>
<path fill="#00192c" d="
  M 138.51 3.73
  C 150.89 8.84 159.06 20.64 159.64 33.92
  Q 159.41 36.17 158.51 37.91
  Q 158.43 38.07 158.52 38.22
  Q 158.59 38.33 158.73 38.37
  Q 158.88 38.42 158.75 38.50
  L 156.07 40.21
  Q 155.70 40.45 155.60 40.87
  Q 155.38 41.78 154.67 42.35
  Q 154.25 42.68 154.16 43.21
  Q 154.02 44.07 153.20 44.33
  Q 152.67 44.49 152.45 45.00
  Q 151.72 46.63 150.00 47.12
  A 0.33 0.33 0.0 0 0 149.97 47.74
  Q 150.19 47.82 150.12 48.00
  Q 149.82 48.71 149.72 48.84
  Q 148.95 49.85 147.84 50.19
  Q 147.27 50.36 147.21 50.95
  Q 146.88 54.01 143.91 54.15
  Q 143.44 54.18 143.28 54.61
  Q 142.49 56.71 140.27 57.22
  Q 139.74 57.33 139.49 57.80
  Q 138.77 59.11 137.38 59.61
  A 2.65 2.64 -14.4 0 0 135.66 62.51
  Q 135.97 64.49 134.41 64.75
  Q 133.71 64.87 133.88 65.56
  Q 134.06 66.30 133.55 66.71
  A 0.55 0.55 0.0 0 0 133.58 67.59
  Q 134.05 67.92 134.26 68.47
  Q 134.40 68.84 134.23 69.20
  L 133.02 71.63
  Q 132.82 72.04 132.83 72.50
  Q 132.85 74.19 130.32 76.24
  A 0.73 0.73 0.0 0 1 129.14 75.82
  Q 129.00 75.09 127.96 75.21
  Q 127.89 75.22 127.90 75.15
  Q 127.90 75.01 127.79 74.89
  Q 127.62 74.70 127.58 74.95
  Q 127.45 75.73 127.07 76.45
  Q 126.84 76.87 126.82 77.36
  L 126.49 87.74
  Q 128.35 71.19 119.74 57.53
  C 116.99 53.17 112.50 58.04 110.39 60.90
  Q 109.26 62.42 110.08 64.17
  C 114.53 73.58 115.99 82.37 112.42 92.58
  Q 111.68 90.64 112.85 89.34
  Q 113.18 88.97 113.10 88.48
  C 112.77 86.51 112.99 83.73 112.15 82.02
  Q 111.84 81.39 111.75 82.08
  L 111.71 82.35
  Q 111.70 82.45 111.60 82.47
  L 103.41 84.42
  A 0.29 0.26 -81.7 0 0 103.23 84.57
  Q 103.16 84.72 103.12 84.81
  Q 102.94 85.20 102.52 85.15
  Q 101.70 85.06 101.41 85.65
  A 2.34 2.27 -69.2 0 1 98.74 86.90
  Q 97.62 86.59 96.95 87.62
  Q 96.69 88.03 96.21 88.03
  Q 94.57 88.06 94.02 89.52
  A 0.69 0.69 0.0 0 1 93.21 89.94
  Q 92.41 89.74 92.14 90.52
  A 0.80 0.77 87.7 0 1 91.72 90.99
  Q 91.46 91.11 91.21 91.11
  Q 90.70 91.11 90.47 91.56
  Q 90.01 92.46 89.10 92.86
  Q 88.65 93.06 88.65 93.55
  L 88.65 94.24
  Q 88.65 94.67 88.26 94.84
  Q 87.66 95.11 87.58 95.82
  Q 87.53 96.34 87.16 96.69
  L 86.34 97.44
  A 0.54 0.54 0.0 0 0 86.36 98.25
  L 88.50 100.06
  Q 88.84 100.36 88.66 100.78
  L 88.38 101.42
  Q 88.19 101.84 88.50 102.19
  Q 89.09 102.87 88.52 103.51
  Q 88.35 103.70 87.60 103.97
  Q 86.75 104.28 86.61 105.30
  A 0.72 0.71 -9.5 0 1 86.21 105.85
  Q 84.55 106.63 83.50 108.11
  A 0.09 0.08 -52.5 0 0 83.51 108.23
  Q 83.60 108.33 83.68 108.42
  Q 83.69 108.43 83.68 108.44
  C 82.08 109.79 80.74 111.15 78.64 111.67
  Q 76.94 112.09 75.21 112.40
  Q 74.65 112.50 74.61 113.06
  L 74.55 113.77
  Q 74.50 114.30 74.08 113.98
  Q 73.39 113.46 72.50 113.45
  Q 72.18 113.45 72.39 113.70
  Q 72.56 113.91 72.83 113.93
  Q 73.24 113.98 73.31 114.39
  Q 73.35 114.62 73.16 114.84
  Q 66.30 112.71 60.29 108.88
  Q 58.98 108.05 58.08 108.04
  C 54.83 108.03 47.98 114.97 52.28 118.35
  Q 60.15 124.52 70.26 126.92
  Q 71.77 127.28 73.38 125.93
  Q 73.15 127.74 72.26 127.98
  Q 70.92 128.33 69.31 127.56
  Q 68.84 127.34 68.43 127.66
  Q 67.89 128.10 67.32 127.32
  Q 67.16 127.10 66.89 127.12
  Q 66.53 127.15 66.14 127.05
  Q 65.77 126.96 65.51 126.67
  Q 64.83 125.93 63.77 125.85
  Q 63.23 125.81 62.91 126.24
  Q 62.52 126.79 62.64 127.50
  Q 62.66 127.63 62.63 127.63
  Q 62.56 127.63 62.50 127.63
  Q 62.42 127.64 62.50 127.50
  Q 62.72 127.09 62.58 126.62
  A 0.36 0.36 0.0 0 0 61.93 126.54
  L 61.37 127.50
  Q 61.26 127.68 61.05 127.64
  Q 60.28 127.49 59.79 127.94
  A 0.23 0.23 0.0 0 0 59.75 128.21
  L 59.91 128.51
  A 0.08 0.07 75.1 0 1 59.85 128.63
  Q 58.55 128.61 58.01 129.76
  Q 57.85 130.09 57.49 130.06
  Q 57.23 130.04 57.00 130.24
  Q 56.64 130.54 56.61 131.08
  Q 56.58 131.49 56.18 131.39
  Q 54.74 131.06 54.59 132.43
  Q 54.57 132.63 54.37 132.63
  L 54.03 132.63
  Q 53.46 132.64 53.01 133.00
  Q 49.68 135.72 46.24 138.32
  C 45.05 139.22 44.21 140.61 42.79 141.43
  A 0.66 0.55 -77.1 0 0 42.66 141.53
  Q 41.21 143.08 39.90 144.80
  Q 39.65 145.13 39.25 145.22
  Q 39.12 145.25 38.98 145.28
  Q 38.58 145.39 38.39 145.76
  L 37.32 147.87
  A 0.11 0.11 0.0 0 1 37.14 147.90
  Q 37.03 147.79 36.92 147.68
  Q 36.79 147.55 36.62 147.61
  Q 34.52 148.37 33.50 150.26
  Q 33.26 150.72 32.77 150.88
  Q 32.43 150.99 32.21 151.32
  Q 32.12 151.45 32.12 151.29
  Q 32.11 151.12 32.12 150.95
  Q 32.12 150.73 31.91 150.77
  L 28.55 151.37
  A 0.92 0.92 0.0 0 0 27.85 152.58
  L 28.05 153.13
  A 0.82 0.82 0.0 0 1 27.88 153.95
  Q 26.24 155.77 24.21 157.18
  Q 24.01 157.32 23.94 157.49
  Q 23.87 157.69 23.86 157.93
  Q 23.84 158.39 23.38 158.50
  Q 22.52 158.70 21.94 159.23
  C 8.74 154.49 0.14 141.67 0.13 127.75
  Q 0.12 110.53 0.24 93.28
  L 0.65 94.57
  Q 0.79 95.01 1.08 94.65
  Q 1.32 94.35 1.48 94.07
  Q 1.64 93.79 1.63 93.42
  Q 1.61 91.88 1.63 90.38
  Q 1.63 90.35 1.64 90.34
  A 0.02 0.02 0.0 0 1 1.67 90.36
  Q 1.57 91.82 2.54 92.32
  Q 3.06 92.58 3.46 92.15
  Q 7.23 88.08 10.34 83.57
  C 11.00 82.62 12.10 81.74 13.06 81.38
  A 1.89 1.86 -86.2 0 0 14.04 80.51
  Q 15.05 78.57 13.38 78.62
  Q 13.37 78.62 13.37 78.63
  Q 13.37 78.63 13.37 78.63
  Q 13.37 78.63 13.38 78.63
  Q 14.87 78.61 16.35 78.63
  A 1.04 1.00 -54.4 0 0 16.72 78.56
  Q 17.40 78.30 17.38 77.89
  Q 17.35 77.43 17.81 77.36
  Q 18.85 77.21 19.40 76.02
  Q 20.74 73.12 23.82 71.06
  Q 28.16 68.16 31.74 64.40
  Q 32.09 64.04 32.06 63.54
  C 31.98 61.98 33.72 60.39 35.31 61.09
  Q 35.77 61.29 35.74 60.79
  Q 35.71 60.18 36.35 60.19
  Q 36.61 60.20 36.62 60.45
  Q 36.63 60.60 36.62 60.75
  Q 36.60 61.05 36.30 61.12
  Q 36.18 61.15 36.06 61.23
  Q 35.98 61.29 36.05 61.35
  Q 37.00 62.24 37.04 64.05
  C 31.73 77.09 32.21 92.14 39.66 104.22
  C 43.09 109.78 47.33 104.79 49.58 102.05
  C 51.60 99.59 49.46 97.06 48.30 94.47
  C 45.30 87.82 45.61 77.46 47.63 71.18
  C 51.55 59.03 62.58 49.68 75.07 47.80
  C 84.94 46.31 91.91 49.34 100.54 53.89
  C 103.87 55.64 107.55 51.19 109.29 48.16
  Q 109.88 46.33 108.98 45.10
  Q 108.83 44.90 108.75 44.67
  Q 108.29 43.47 106.73 43.11
  Q 106.23 43.00 106.40 42.44
  A 0.94 0.05 -16.7 0 1 107.25 42.14
  Q 107.55 42.05 107.71 42.24
  Q 108.12 42.69 108.71 42.54
  Q 109.83 42.26 109.56 41.47
  Q 109.22 40.46 109.75 40.62
  Q 109.92 40.67 110.00 40.51
  Q 110.03 40.44 109.97 40.39
  Q 109.58 40.13 109.66 39.49
  Q 109.85 37.86 111.31 37.67
  Q 111.53 37.64 111.65 37.45
  L 111.85 37.15
  Q 112.01 36.90 112.30 36.90
  Q 113.62 36.91 114.33 35.65
  Q 114.59 35.20 115.05 34.98
  Q 118.64 33.30 121.23 30.35
  Q 121.51 30.04 121.91 29.93
  L 123.19 29.60
  Q 123.60 29.49 123.66 29.07
  Q 123.89 27.54 125.41 27.10
  Q 125.91 26.96 126.21 26.54
  C 127.32 25.02 128.92 25.21 129.64 23.55
  A 1.22 1.20 -3.8 0 1 130.18 22.94
  C 134.51 20.54 134.85 17.69 135.84 13.51
  Q 135.98 12.92 136.55 12.72
  Q 138.28 12.09 137.84 10.01
  A 0.91 0.88 -30.6 0 1 138.06 9.21
  L 139.96 7.16
  Q 140.41 6.68 139.93 6.24
  Q 138.90 5.29 138.51 3.73
  Z
  M 103.12 68.83
  A 8.02 8.02 0.0 0 0 95.10 60.81
  A 8.02 8.02 0.0 0 0 87.08 68.83
  A 8.02 8.02 0.0 0 0 95.10 76.85
  A 8.02 8.02 0.0 0 0 103.12 68.83
  Z
  M 72.62 89.96
  A 7.89 7.89 0.0 0 0 64.73 82.07
  A 7.89 7.89 0.0 0 0 56.84 89.96
  A 7.89 7.89 0.0 0 0 64.73 97.85
  A 7.89 7.89 0.0 0 0 72.62 89.96
  Z"
/>
<path fill="#000d20" d="
  M 159.64 33.92
  Q 160.40 87.19 159.66 128.00
  C 159.59 132.03 158.71 137.00 157.09 140.84
  Q 149.40 159.08 129.04 161.00
  L 31.20 161.00
  Q 26.34 160.88 21.94 159.23
  Q 22.52 158.70 23.38 158.50
  Q 23.84 158.39 23.86 157.93
  Q 23.87 157.69 23.94 157.49
  Q 24.01 157.32 24.21 157.18
  Q 26.24 155.77 27.88 153.95
  A 0.82 0.82 0.0 0 0 28.05 153.13
  L 27.85 152.58
  A 0.92 0.92 0.0 0 1 28.55 151.37
  L 31.91 150.77
  Q 32.12 150.73 32.12 150.95
  Q 32.11 151.12 32.12 151.29
  Q 32.12 151.45 32.21 151.32
  Q 32.43 150.99 32.77 150.88
  Q 33.26 150.72 33.50 150.26
  Q 34.52 148.37 36.62 147.61
  Q 36.79 147.55 36.92 147.68
  Q 37.03 147.79 37.14 147.90
  A 0.11 0.11 0.0 0 0 37.32 147.87
  L 38.39 145.76
  Q 38.58 145.39 38.98 145.28
  Q 39.12 145.25 39.25 145.22
  Q 39.65 145.13 39.90 144.80
  Q 41.21 143.08 42.66 141.53
  A 0.66 0.55 -77.1 0 1 42.79 141.43
  C 44.21 140.61 45.05 139.22 46.24 138.32
  Q 49.68 135.72 53.01 133.00
  Q 53.46 132.64 54.03 132.63
  L 54.37 132.63
  Q 54.57 132.63 54.59 132.43
  Q 54.74 131.06 56.18 131.39
  Q 56.58 131.49 56.61 131.08
  Q 56.64 130.54 57.00 130.24
  Q 57.23 130.04 57.49 130.06
  Q 57.85 130.09 58.01 129.76
  Q 58.55 128.61 59.85 128.63
  A 0.08 0.07 75.1 0 0 59.91 128.51
  L 59.75 128.21
  A 0.23 0.23 0.0 0 1 59.79 127.94
  Q 60.28 127.49 61.05 127.64
  Q 61.26 127.68 61.37 127.50
  L 61.93 126.54
  A 0.36 0.36 0.0 0 1 62.58 126.62
  Q 62.72 127.09 62.50 127.50
  Q 62.42 127.64 62.50 127.63
  Q 62.56 127.63 62.63 127.63
  Q 62.66 127.63 62.64 127.50
  Q 62.52 126.79 62.91 126.24
  Q 63.23 125.81 63.77 125.85
  Q 64.83 125.93 65.51 126.67
  Q 65.77 126.96 66.14 127.05
  Q 66.53 127.15 66.89 127.12
  Q 67.16 127.10 67.32 127.32
  Q 67.89 128.10 68.43 127.66
  Q 68.84 127.34 69.31 127.56
  Q 70.92 128.33 72.26 127.98
  Q 73.15 127.74 73.38 125.93
  C 73.92 123.06 74.63 117.71 73.16 114.84
  Q 73.35 114.62 73.31 114.39
  Q 73.24 113.98 72.83 113.93
  Q 72.56 113.91 72.39 113.70
  Q 72.18 113.45 72.50 113.45
  Q 73.39 113.46 74.08 113.98
  Q 74.50 114.30 74.55 113.77
  L 74.61 113.06
  Q 74.65 112.50 75.21 112.40
  Q 76.94 112.09 78.64 111.67
  C 80.74 111.15 82.08 109.79 83.68 108.44
  Q 83.69 108.43 83.68 108.42
  Q 83.60 108.33 83.51 108.23
  A 0.09 0.08 -52.5 0 1 83.50 108.11
  Q 84.55 106.63 86.21 105.85
  A 0.72 0.71 -9.5 0 0 86.61 105.30
  Q 86.75 104.28 87.60 103.97
  Q 88.35 103.70 88.52 103.51
  Q 89.09 102.87 88.50 102.19
  Q 88.19 101.84 88.38 101.42
  L 88.66 100.78
  Q 88.84 100.36 88.50 100.06
  L 86.36 98.25
  A 0.54 0.54 0.0 0 1 86.34 97.44
  L 87.16 96.69
  Q 87.53 96.34 87.58 95.82
  Q 87.66 95.11 88.26 94.84
  Q 88.65 94.67 88.65 94.24
  L 88.65 93.55
  Q 88.65 93.06 89.10 92.86
  Q 90.01 92.46 90.47 91.56
  Q 90.70 91.11 91.21 91.11
  Q 91.46 91.11 91.72 90.99
  A 0.80 0.77 87.7 0 0 92.14 90.52
  Q 92.41 89.74 93.21 89.94
  A 0.69 0.69 0.0 0 0 94.02 89.52
  Q 94.57 88.06 96.21 88.03
  Q 96.69 88.03 96.95 87.62
  Q 97.62 86.59 98.74 86.90
  A 2.34 2.27 -69.2 0 0 101.41 85.65
  Q 101.70 85.06 102.52 85.15
  Q 102.94 85.20 103.12 84.81
  Q 103.16 84.72 103.23 84.57
  A 0.29 0.26 -81.7 0 1 103.41 84.42
  L 111.60 82.47
  Q 111.70 82.45 111.71 82.35
  L 111.75 82.08
  Q 111.84 81.39 112.15 82.02
  C 112.99 83.73 112.77 86.51 113.10 88.48
  Q 113.18 88.97 112.85 89.34
  Q 111.68 90.64 112.42 92.58
  C 108.13 104.47 97.83 113.06 84.97 114.97
  A 1.92 1.91 -4.7 0 0 83.34 116.88
  L 83.42 125.71
  A 0.98 0.96 -73.2 0 0 83.82 126.48
  Q 85.49 127.68 88.52 127.05
  Q 107.23 123.19 117.66 108.91
  Q 124.62 99.38 126.49 87.74
  L 126.82 77.36
  Q 126.84 76.87 127.07 76.45
  Q 127.45 75.73 127.58 74.95
  Q 127.62 74.70 127.79 74.89
  Q 127.90 75.01 127.90 75.15
  Q 127.89 75.22 127.96 75.21
  Q 129.00 75.09 129.14 75.82
  A 0.73 0.73 0.0 0 0 130.32 76.24
  Q 132.85 74.19 132.83 72.50
  Q 132.82 72.04 133.02 71.63
  L 134.23 69.20
  Q 134.40 68.84 134.26 68.47
  Q 134.05 67.92 133.58 67.59
  A 0.55 0.55 0.0 0 1 133.55 66.71
  Q 134.06 66.30 133.88 65.56
  Q 133.71 64.87 134.41 64.75
  Q 135.97 64.49 135.66 62.51
  A 2.65 2.64 -14.4 0 1 137.38 59.61
  Q 138.77 59.11 139.49 57.80
  Q 139.74 57.33 140.27 57.22
  Q 142.49 56.71 143.28 54.61
  Q 143.44 54.18 143.91 54.15
  Q 146.88 54.01 147.21 50.95
  Q 147.27 50.36 147.84 50.19
  Q 148.95 49.85 149.72 48.84
  Q 149.82 48.71 150.12 48.00
  Q 150.19 47.82 149.97 47.74
  A 0.33 0.33 0.0 0 1 150.00 47.12
  Q 151.72 46.63 152.45 45.00
  Q 152.67 44.49 153.20 44.33
  Q 154.02 44.07 154.16 43.21
  Q 154.25 42.68 154.67 42.35
  Q 155.38 41.78 155.60 40.87
  Q 155.70 40.45 156.07 40.21
  L 158.75 38.50
  Q 158.88 38.42 158.73 38.37
  Q 158.59 38.33 158.52 38.22
  Q 158.43 38.07 158.51 37.91
  Q 159.41 36.17 159.64 33.92
  Z"
/>
<path fill="#f6f7f8" d="
  M 109.29 48.16
  C 107.55 51.19 103.87 55.64 100.54 53.89
  C 91.91 49.34 84.94 46.31 75.07 47.80
  C 62.58 49.68 51.55 59.03 47.63 71.18
  C 45.61 77.46 45.30 87.82 48.30 94.47
  C 49.46 97.06 51.60 99.59 49.58 102.05
  C 47.33 104.79 43.09 109.78 39.66 104.22
  C 32.21 92.14 31.73 77.09 37.04 64.05
  Q 43.86 47.68 57.83 40.59
  Q 79.78 29.45 102.20 40.82
  Q 108.51 44.02 109.29 48.16
  Z"
/>
<path fill="#f6f7f8" d="
  M 126.49 87.74
  Q 124.62 99.38 117.66 108.91
  Q 107.23 123.19 88.52 127.05
  Q 85.49 127.68 83.82 126.48
  A 0.98 0.96 -73.2 0 1 83.42 125.71
  L 83.34 116.88
  A 1.92 1.91 -4.7 0 1 84.97 114.97
  C 97.83 113.06 108.13 104.47 112.42 92.58
  C 115.99 82.37 114.53 73.58 110.08 64.17
  Q 109.26 62.42 110.39 60.90
  C 112.50 58.04 116.99 53.17 119.74 57.53
  Q 128.35 71.19 126.49 87.74
  Z"
/>
<circle fill="#f6f7f8" cx="95.10" cy="68.83" r="8.02"/>
<circle fill="#f6f7f8" cx="64.73" cy="89.96" r="7.89"/>
<path fill="#f6f7f8" d="
  M 73.16 114.84
  C 74.63 117.71 73.92 123.06 73.38 125.93
  Q 71.77 127.28 70.26 126.92
  Q 60.15 124.52 52.28 118.35
  C 47.98 114.97 54.83 108.03 58.08 108.04
  Q 58.98 108.05 60.29 108.88
  Q 66.30 112.71 73.16 114.84
  Z"
/>
</svg>
